# xmcd
#
# Track frame offsets: 
#        150
#        14457
#        30821
#        43539
#        57024
#        73013
#        88171
#        105848
#        118437
#        141617
#        157731
#        172815
#        186020
#        201929
#        219603
#        231391
#        247408
#        260994
#        279362
#        294931
#
# Disc length: 4262 seconds
#
# Revision: 0
# Processed by: cddbd v1.5.2PL0 Copyright (c) Steve Scherf et al.
# Submitted via: ExactAudioCopy v0.99pb4
#
DISCID=2810a414
DTITLE=Various Artist - Radio 2 - De Topcollectie - Vlaamse klassiekers - CD 
DTITLE=5
DYEAR=2014
DGENRE=Chanson
TTITLE0=Stef Bos - Papa
TTITLE1=Will Tura - Hemelsblauw
TTITLE2=Walter De Buck - 't Vliegerke
TTITLE3=Liliane Saint-Pierre - Soldiers Of Love
TTITLE4=Samantha - Eviva España
TTITLE5=K3 - Heyah Mama
TTITLE6=Paul Severs - Ik Ben Verliefd Op Jou
TTITLE7=Nicole and Hugo - Goeiemorgen, Morgen
TTITLE8=Vuile Mong and Zijn Vieze Gasten - Het Apekot
TTITLE9=Niels William - Zie Ze Doen
TTITLE10=Get Ready! - Marjolijn
TTITLE11=Miek En Roel - Wie Wil Horen
TTITLE12=Bert De Coninck - Evelyne
TTITLE13=Günther Neefs - Ik Blijf Bij Jou
TTITLE14=Zjef Vanuytsel - Houten Kop
TTITLE15=Luc Steeno - Hij Speelde Accordeon
TTITLE16=Flip Kowlier - Min Moaten
TTITLE17=Yevgueni - Robbie II
TTITLE18=Will Ferdy - De Stervende (Vaarwel Emiel)
TTITLE19=Gorky - Mia
EXTD=
EXTT0=
EXTT1=
EXTT2=
EXTT3=
EXTT4=
EXTT5=
EXTT6=
EXTT7=
EXTT8=
EXTT9=
EXTT10=
EXTT11=
EXTT12=
EXTT13=
EXTT14=
EXTT15=
EXTT16=
EXTT17=
EXTT18=
EXTT19=
PLAYORDER=
